<svg width="602" height="306" viewBox="0 0 602 306" fill="none" xmlns="http://www.w3.org/2000/svg">
<path d="M411.278 70.8643H198.532V115.27H411.278V70.8643Z" fill="#212121"/>
<path opacity="0.77" d="M411.278 143.703H198.532V143.869H411.278V143.703Z" fill="#212121"/>
<path d="M198.532 115.27H174V143.702H198.532V115.27Z" fill="#212121"/>
<path d="M433.685 115.27H411.279V143.702H433.685V115.27Z" fill="#212121"/>
<path d="M314.204 232.402C320.218 232.402 325.093 227.527 325.093 221.513C325.093 215.5 320.218 210.625 314.204 210.625C308.19 210.625 303.315 215.5 303.315 221.513C303.315 227.527 308.19 232.402 314.204 232.402Z" fill="#212121"/>
<path fill-rule="evenodd" clip-rule="evenodd" d="M379.204 184.041C379.204 184.226 378.926 183.893 378.834 183.782C375.552 185.127 372.109 186.041 368.592 186.499C364.967 186.969 361.289 186.844 357.704 186.13C354.219 185.312 350.968 183.705 348.201 181.434C347.443 180.824 346.482 180.362 346.075 179.474C345.739 178.806 345.317 178.184 344.818 177.626C344.07 176.851 343.447 175.966 342.97 175.001C342.766 174.853 343.358 174.612 343.339 174.557C343.321 174.501 343.136 174.021 343.099 173.744C343.968 173.059 343.949 173.614 344.134 173.854C344.319 174.095 345.373 174.501 345.65 175.038C345.854 175.038 345.891 174.612 346.112 174.668C347.24 175.629 348.22 175.98 349.218 176.997C349.458 176.59 348.83 176.683 348.922 176.369C349.72 176.881 350.568 177.309 351.455 177.644C351.769 177.774 351.936 178.143 352.232 178.291C354.162 179.341 356.236 180.101 358.388 180.547C358.887 180.547 359.33 180.676 359.811 180.75L361.346 180.898C362.347 181 363.357 181 364.359 180.898C365.258 181.241 366.251 181.241 367.15 180.898C369.758 180.786 372.333 180.275 374.785 179.382C376.394 178.903 377.935 178.22 379.37 177.348C380.222 176.917 381.105 176.552 382.014 176.258C382.46 176.041 382.876 175.768 383.252 175.444C383.77 175.112 384.084 174.686 384.861 174.742C385.619 173.873 386.58 173.633 387.449 172.505C388.281 172.838 388.78 172.505 389.686 172.856C390.111 173.337 389.852 173.633 390.056 174.058C389.743 174.554 389.529 175.107 389.427 175.685C389.427 176.017 388.946 176.017 388.669 176.221C388.143 176.733 387.655 177.283 387.209 177.866C386.395 178.606 385.951 179.604 385.23 180.214C383.382 181.453 381.237 182.543 379.093 183.911C379.204 183.893 379.204 184.059 379.204 184.041Z" fill="#212121"/>
<path fill-rule="evenodd" clip-rule="evenodd" d="M267.377 186.536C267.377 186.536 267.45 186.518 267.377 186.536V186.536Z" fill="#212121"/>
<path fill-rule="evenodd" clip-rule="evenodd" d="M283.571 188.2C283.419 188.437 283.342 188.714 283.349 188.995C283.428 189.419 283.356 189.857 283.146 190.234C283.146 190.345 282.573 190.234 282.573 190.234C282.573 190.234 282.388 190.419 282.203 190.493C281.113 190.493 281.482 190.493 281.519 190.308C281.556 190.123 281.02 190.105 281.149 189.938C280.961 189.991 280.77 190.034 280.576 190.068C280.392 189.809 279.929 189.716 279.929 189.365C279.504 189.55 279.929 189.476 279.726 189.624C279.485 189.451 279.216 189.32 278.931 189.236C278.82 189.236 278.931 189.032 278.931 188.977C278.45 188.607 278.062 188.163 277.563 187.738C277.064 187.313 276.879 186.906 276.361 186.666C276.565 186.204 276.232 186.111 275.992 186.037C275.881 185.335 275.197 185.002 274.938 184.3C274.815 183.951 274.634 183.626 274.402 183.338C272.853 184.1 271.238 184.719 269.577 185.187C268.738 185.44 267.886 185.65 267.026 185.816C267.037 186.017 267.108 186.21 267.229 186.37H267.321H267.044C266.9 187.181 266.838 188.005 266.859 188.829C266.991 190.486 266.815 192.153 266.342 193.746C266.342 193.968 266.342 194.246 266.009 194.375C265.774 194.425 265.565 194.556 265.417 194.745C265.355 194.885 265.264 195.011 265.149 195.113C265.034 195.215 264.899 195.291 264.752 195.336C264.752 195.336 264.216 195.17 264.197 195.188C264.179 195.207 263.957 195.188 263.772 195.188C262.737 194.837 263.143 194.874 263.18 194.819C263.217 194.763 262.829 194.412 263.014 194.338C262.832 194.293 262.653 194.238 262.478 194.172C262.478 193.82 262.108 193.543 262.293 193.284C261.849 193.284 262.293 193.377 261.979 193.284C261.664 193.192 261.701 192.822 261.535 192.6C261.369 192.378 261.701 192.489 261.683 192.397C261.498 191.898 261.443 191.417 261.295 190.918C261.147 190.419 261.295 190.049 260.98 189.624C261.443 189.439 261.202 189.217 260.98 189.032C261.332 188.533 260.98 187.96 261.258 187.35C261.383 187.07 261.458 186.769 261.48 186.463H261.221C259.951 186.153 258.635 186.078 257.338 186.241C255.878 185.963 254.288 185.705 252.643 185.353H252.809C252.809 185.353 252.809 185.353 252.661 185.353H252.421C252.03 186.109 251.714 186.902 251.478 187.72C251.108 189.354 250.484 190.919 249.629 192.36C249.519 192.545 249.629 192.878 249.149 192.896C248.907 192.884 248.669 192.963 248.483 193.118C248.387 193.245 248.264 193.351 248.124 193.427C247.984 193.504 247.829 193.549 247.67 193.562C247.67 193.562 247.189 193.284 247.171 193.284C247.029 193.292 246.887 193.292 246.745 193.284C245.84 192.693 246.209 192.822 246.265 192.767C246.32 192.711 246.025 192.286 246.265 192.267C246.088 192.18 245.921 192.074 245.766 191.953C245.766 191.62 245.581 191.251 245.766 191.029C245.359 190.826 245.766 191.121 245.451 191.029C245.424 190.751 245.342 190.481 245.211 190.234C245.211 190.123 245.396 190.234 245.396 190.068C245.368 189.519 245.368 188.97 245.396 188.422C245.451 187.943 245.451 187.459 245.396 186.98C245.877 186.98 245.729 186.629 245.655 186.407C246.154 186 246.025 185.316 246.45 184.78C246.711 184.472 246.906 184.113 247.023 183.727H246.801C244.952 182.821 243.104 181.878 241.44 180.824C241.154 181.078 240.954 181.414 240.867 181.785H241.033C241.181 181.915 240.811 181.675 240.682 181.619C239.966 182.192 239.287 182.81 238.648 183.468C237.554 184.765 236.313 185.931 234.951 186.943C234.785 187.073 234.766 187.405 234.359 187.258C234.139 187.174 233.896 187.174 233.675 187.258C233.553 187.343 233.415 187.404 233.269 187.435C233.123 187.467 232.972 187.469 232.825 187.442C232.825 187.442 232.418 187.054 232.381 187.054C232.242 187.023 232.106 186.979 231.975 186.925C231.198 186.167 231.549 186.37 231.623 186.333C231.697 186.296 231.531 185.779 231.734 185.779C231.623 185.612 231.401 185.483 231.364 185.353C231.327 185.224 231.457 184.54 231.827 184.355C231.494 184.041 231.716 184.448 231.494 184.355C231.595 184.051 231.651 183.733 231.66 183.412C231.66 183.283 231.882 183.412 231.919 183.283C232.178 182.691 232.566 182.174 232.88 181.601C233.229 181.188 233.515 180.728 233.731 180.233C234.23 180.38 234.23 180.048 234.285 179.807C234.932 179.641 235.136 178.957 235.764 178.643C236.141 178.47 236.475 178.218 236.744 177.903C236.892 177.737 237.299 177.737 237.668 177.681C237.762 177.67 237.848 177.624 237.909 177.552C237.561 177.281 237.233 176.984 236.929 176.665C236.411 176.11 235.801 175.777 235.746 174.816C234.908 173.906 234.13 172.943 233.416 171.932C233.842 171.119 233.417 170.545 234.064 169.751C234.637 169.436 234.895 169.751 235.358 169.621C235.789 169.991 236.293 170.268 236.837 170.435C237.151 170.545 237.114 170.915 237.317 171.193C237.795 171.718 238.335 172.184 238.926 172.579C239.734 173.109 240.581 173.579 241.458 173.984C243.086 175.568 245.052 176.762 247.208 177.478C247.208 177.478 247.208 177.293 247.208 177.256C247.208 177.219 247.208 177.552 247.208 177.7C250.239 179.302 253.543 180.324 256.95 180.713C260.458 181.113 264.008 180.92 267.451 180.14C270.676 179.482 273.733 178.174 276.435 176.295C277.049 175.658 277.738 175.1 278.487 174.631C279.108 174.341 279.643 173.895 280.04 173.337C280.65 172.524 281.02 171.673 281.667 170.712C281.667 170.453 282.222 170.823 282.24 170.712C282.259 170.601 282.554 170.194 282.776 169.991C283.849 170.231 283.368 170.638 283.257 170.989C283.054 171.636 283.257 172.634 282.795 173.226C282.924 173.411 283.275 173.226 283.294 173.559C282.805 175.183 281.915 176.658 280.706 177.848C281.113 178.107 281.149 177.367 281.482 177.423C280.729 178.458 279.921 179.451 279.06 180.399H278.968C279.375 181.009 279.8 181.582 280.244 182.137C281.583 183.608 282.642 185.313 283.368 187.165C283.497 187.609 283.83 187.794 283.571 188.2Z" fill="#212121"/>
<path fill-rule="evenodd" clip-rule="evenodd" d="M416.954 162.965C416.066 157.955 415.105 153.556 414.07 149.341C413.608 147.492 413.127 145.643 412.609 143.795H408.099C408.099 143.795 408.099 143.905 408.099 143.961L408.357 144.941C409.467 149.378 410.594 153.796 411.482 158.233C412.369 162.67 413.053 167.18 413.515 171.71C413.977 176.239 414.273 180.805 414.329 185.408C414.329 187.701 414.329 190.012 414.181 192.341C414.033 194.67 414.051 196.981 413.774 199.31C412.979 208.914 411.201 218.41 408.468 227.651C404.186 242.453 396.758 256.156 386.691 267.823C376.268 279.328 363.159 288.074 348.534 293.279C339.358 296.66 329.782 298.835 320.046 299.749C310.814 300.676 301.503 300.49 292.316 299.195C273.672 296.654 256.22 288.579 242.216 276.012C221.486 257.629 207.821 232.588 203.579 205.208C200.434 184.552 202.715 163.433 210.197 143.924V143.758H205.834V143.924C204.984 145.957 204.17 148.287 203.431 150.635C201.912 155.104 200.634 159.652 199.604 164.259C198.606 169.14 198.051 173.706 197.571 177.625C197.538 176.318 197.575 175.01 197.681 173.706C196.04 187.917 196.885 202.305 200.177 216.226C203.626 230.734 209.643 244.508 217.943 256.897C226.249 269.39 236.927 280.13 249.371 288.509C261.374 296.668 275.026 302.083 289.358 304.371C302.617 306.543 316.141 306.543 329.4 304.371C342.601 302.118 355.318 297.622 367.002 291.079C372.807 287.758 378.263 283.862 383.289 279.451C388.227 275.026 392.699 270.107 396.637 264.772C404.232 254.233 409.954 242.463 413.552 229.98C412.426 233.78 411.01 237.488 409.319 241.072C410.428 238.225 409.041 241.497 409.319 240.296C409.354 240.182 409.397 240.071 409.448 239.963L410.742 236.931C411.223 235.674 411.722 234.325 412.073 233.234C412.739 231.385 413.071 229.296 413.608 227.318C416.286 218.317 417.917 209.037 418.47 199.662C418.851 196.825 419.036 193.965 419.024 191.102C419.33 181.677 418.636 172.245 416.954 162.965V162.965ZM418.229 206.909C418.118 208.424 417.86 209.182 417.878 210.125C418.161 209.078 418.279 207.993 418.229 206.909V206.909ZM416.288 154.683C417.74 162.215 418.74 169.827 419.283 177.478C419.847 186.104 419.667 194.763 418.747 203.359C418.599 203.359 418.747 203.932 418.747 204.08C420.71 187.593 419.879 170.894 416.288 154.683V154.683ZM417.213 214.026C417.213 214.303 417.379 213.656 417.36 213.675C418.026 212.122 417.508 208.998 417.213 214.026V214.026ZM415.197 223.158C414.772 225.007 413.774 228.057 413.774 228.705C414.391 226.895 414.867 225.041 415.197 223.158V223.158Z" fill="#212121"/>
<path d="M411.278 115.27H198.532V143.702H411.278V115.27Z" fill="#212121"/>
<path d="M500.403 34.3528C500.412 34.5067 500.412 34.661 500.403 34.815V35.1292C500.357 36.5054 499.962 37.8474 499.257 39.03C498.581 40.2014 497.514 41.0979 496.244 41.5627L495.855 41.6736C493.832 42.7647 491.511 43.1732 489.237 42.8382C489.237 42.8382 489.237 42.8382 489.237 42.8382C489.01 42.8566 488.781 42.8566 488.553 42.8382C488.96 43.5397 489.33 44.2616 489.662 45.0012C489.744 45.2926 489.805 45.589 489.847 45.8886C490.421 47.9518 490.337 50.1424 489.607 52.1556C488.931 53.9935 487.806 55.6331 486.335 56.9252C485.484 57.3504 484.708 57.9235 483.968 58.2932C481.619 59.2531 479.015 59.3964 476.574 58.6999C475.076 58.2166 473.696 57.4229 472.525 56.3706C471.925 55.7884 471.431 55.1066 471.065 54.3555C470.861 53.9673 470.621 53.6161 470.455 53.2278C470.187 52.8297 470.051 52.3577 470.066 51.8783C469.783 51.0622 469.621 50.2089 469.586 49.3456C469.474 49.5478 469.344 49.7395 469.197 49.9187C469.197 50.0111 469.401 49.9187 469.364 50.0851C468.934 51.1871 468.308 52.2019 467.515 53.0799C467.7 53.0799 467.829 52.7287 467.996 52.7102C467.438 53.4507 466.82 54.1433 466.147 54.7807C465.874 54.9804 465.59 55.1655 465.297 55.3353C463.338 56.7318 460.946 57.387 458.549 57.184C456.305 56.9624 454.223 55.9148 452.707 54.2446C452.171 53.3572 451.543 52.5808 451.043 51.8413C449.724 49.4735 449.036 46.8059 449.047 44.0953C449.11 42.3937 449.473 40.7166 450.119 39.1409C450.482 38.3043 450.974 37.5305 451.58 36.8485C451.894 36.4788 452.153 36.0906 452.467 35.7578C452.772 35.3215 453.195 34.9816 453.687 34.778C454.368 34.1391 455.165 33.637 456.035 33.299C455.11 32.8626 454.291 32.2321 453.632 31.4504C453.521 31.6352 453.946 31.7831 453.964 31.968C453.294 31.3751 452.675 30.7257 452.116 30.0269C451.934 29.7562 451.773 29.4719 451.635 29.1765C450.429 27.2522 449.683 25.0762 449.454 22.817C449.267 20.724 449.545 18.6156 450.267 16.6424C450.822 15.792 451.302 14.7937 451.875 14.0912C452.795 13.0855 453.916 12.2854 455.166 11.7434C456.008 11.3905 456.9 11.1721 457.81 11.0964C457.123 10.6526 456.399 10.2691 455.647 9.95018C448.484 7.12465 440.866 5.63347 433.167 5.55032C426.188 5.41152 419.225 6.2516 412.48 8.04604C409.276 8.44202 406.155 9.34694 403.236 10.7266C394.765 13.6286 387.021 18.3267 380.535 24.4993C376.447 28.3666 373.107 32.954 370.681 38.0317C369.306 40.7579 368.072 43.5531 366.984 46.4062C366.47 47.9555 366.056 49.5363 365.745 51.1388C365.527 52.9378 365.125 54.7096 364.544 56.4261C364.157 60.1133 364.157 63.8309 364.544 67.5182C363.823 68.5534 364.044 70.4391 363.249 71.4559C362.584 71.234 362.362 70.0324 361.826 69.4778C361.493 67.7955 361.05 66.0207 360.643 64.4309C360.542 63.4598 360.542 62.481 360.643 61.5099C360.643 60.4377 360.643 59.2545 360.643 58.0529C360.643 56.8513 360.643 55.6866 360.791 54.6513C360.969 51.5076 361.377 48.3812 362.011 45.297C364.186 38.1828 367.495 31.466 371.809 25.4052C371.698 25.5161 371.587 25.4052 371.495 25.5161C371.495 25.2758 372.012 25.2388 372.197 25.2203C379.31 16.8855 388.346 10.4074 398.522 6.34525C408.865 2.13507 419.929 -0.0187529 431.096 0.00427115C441.927 -0.12198 452.606 2.55263 462.099 7.76874C463.374 8.58216 464.779 9.34012 466.055 10.2275C467.294 11.0852 468.435 12.0772 469.456 13.1854L470.898 14.8307C472.051 12.885 473.599 11.2032 475.443 9.89428C477.287 8.58536 479.385 7.67854 481.602 7.23262C482.488 7.08248 483.389 7.05139 484.283 7.14019C485.245 7.0902 486.21 7.17734 487.148 7.399C488.758 7.8051 490.165 8.78448 491.104 10.1535C491.932 11.3307 492.528 12.6545 492.861 14.0543C493.545 16.8093 493.305 19.7129 492.177 22.3179C491.927 22.9866 491.571 23.6108 491.123 24.1666C492.641 24.1993 494.13 24.5999 495.459 25.334C496.789 26.0682 497.921 27.1139 498.758 28.3815C499.912 30.1534 500.487 32.24 500.403 34.3528V34.3528Z" fill="#212121"/>
<path fill-rule="evenodd" clip-rule="evenodd" d="M294.774 259.023C294.904 258.875 294.922 259.356 294.941 259.522C300.465 261.908 306.395 263.213 312.411 263.368C315.849 263.516 319.251 263.553 322.283 263.368C325.251 263.197 328.197 262.751 331.083 262.037C336.795 260.566 342.144 257.935 346.796 254.309C348.09 253.274 349.255 251.961 350.494 251.111C351.568 250.435 352.535 249.599 353.359 248.634C354.672 247.229 355.707 245.694 357.056 244.123C357.26 243.716 357.556 244.4 357.63 244.308C357.999 243.993 358.314 243.55 358.683 243.254C359.571 243.919 358.831 244.4 358.498 244.918C357.974 246.064 357.355 247.164 356.65 248.208C356.65 248.449 357.167 248.208 357.02 248.671C355.656 250.977 353.976 253.08 352.028 254.919C352.472 255.159 352.805 254.198 353.193 254.18C351.936 255.585 350.494 257.267 349.052 258.635C348.46 259.089 347.843 259.509 347.203 259.892C343.136 263.052 338.542 265.468 333.634 267.028C329.209 268.326 324.65 269.107 320.046 269.357C317.982 269.07 315.891 269.021 313.816 269.209C308.713 268.692 302.335 268.415 296.383 266.178C292.812 264.855 289.407 263.124 286.233 261.02C285.369 260.449 284.564 259.792 283.83 259.06C283.097 258.309 282.411 257.513 281.778 256.675C281.094 255.825 280.355 255.067 279.726 254.254C278.883 253.422 278.287 252.372 278.007 251.222C276.7 249.309 275.585 247.272 274.679 245.14C275.197 244.252 274.883 243.162 275.622 242.404C276.288 242.404 276.509 242.977 277.046 243.106C277.479 243.917 278.062 244.639 278.765 245.232C279.153 245.602 279.116 246.119 279.393 246.637C280.044 247.681 280.786 248.665 281.612 249.576C282.748 250.805 283.985 251.937 285.309 252.96C286.514 254.349 287.908 255.563 289.45 256.564C291.132 257.677 292.946 258.577 294.848 259.245C294.848 259.245 294.848 259.06 294.774 259.023Z" fill="#212121"/>
<path d="M360.532 205.948H360.921C361.881 205.859 362.801 205.514 363.583 204.949L363.989 204.654C364.1 204.543 364.23 204.432 364.341 204.302C364.455 204.188 364.56 204.064 364.655 203.933C364.759 203.812 364.852 203.682 364.932 203.544L365.173 203.119L365.394 202.676L365.561 202.195C365.561 202.047 365.561 201.881 365.709 201.714L365.82 201.215C365.82 201.03 365.82 200.864 365.82 200.698V200.161C365.82 199.977 365.82 199.792 365.82 199.607V199.052C365.82 198.867 365.82 198.682 365.82 198.498C365.82 198.313 365.82 198.128 365.82 197.943C365.838 197.752 365.838 197.561 365.82 197.37V196.797C365.82 196.612 365.82 196.427 365.727 196.242C365.717 196.051 365.717 195.86 365.727 195.669L365.616 195.115C365.616 194.93 365.616 194.763 365.487 194.578C365.357 194.394 365.487 194.209 365.357 194.042L365.21 193.506C365.21 193.34 365.21 193.173 365.08 192.989C365.022 192.825 364.973 192.658 364.932 192.489C364.875 192.338 364.825 192.184 364.784 192.027L364.618 191.565C364.577 191.414 364.528 191.266 364.47 191.121L364.341 190.715L364.193 190.326L364.063 189.975C364.012 189.868 363.969 189.756 363.934 189.642L363.823 189.347L363.712 189.088V188.866V188.681V188.533L363.583 188.663L363.435 188.81L363.268 188.995L363.065 189.217C363.008 189.305 362.939 189.386 362.862 189.458L362.621 189.735L362.363 190.031L362.085 190.345L361.808 190.696L361.512 191.066L361.216 191.436L360.902 191.842L360.606 192.268L360.292 192.693L359.978 193.155L359.664 193.617L358.869 194.116C358.759 194.27 358.66 194.43 358.573 194.597L358.277 195.096C358.185 195.262 358.092 195.429 358.018 195.595C357.944 195.762 357.833 195.928 357.759 196.094C357.685 196.261 357.593 196.446 357.519 196.612C357.43 196.777 357.355 196.951 357.297 197.13C357.297 197.296 357.149 197.481 357.094 197.647C357.038 197.814 356.964 197.998 356.909 198.165C356.854 198.331 356.798 198.516 356.761 198.682C356.724 198.849 356.761 199.034 356.632 199.2C356.502 199.366 356.632 199.551 356.539 199.718V200.235C356.527 200.568 356.527 200.901 356.539 201.234V201.714C356.531 201.874 356.531 202.035 356.539 202.195L356.669 202.657L356.854 203.119C356.923 203.267 357.003 203.409 357.094 203.544L357.371 203.97L357.704 204.376C357.826 204.52 357.962 204.65 358.111 204.765C358.762 205.42 359.615 205.837 360.532 205.948Z" fill="#212121"/>
<path d="M341.121 201.307L341.472 201.437C342.406 201.677 343.385 201.677 344.319 201.437L344.8 201.289L345.262 201.086L345.687 200.845L346.075 200.568L346.445 200.254L346.796 199.902L347.129 199.533L347.425 199.107L347.702 198.682L347.961 198.22L348.183 197.739C348.183 197.573 348.331 197.407 348.405 197.24C348.478 197.074 348.534 196.889 348.608 196.723L348.774 196.187L348.941 195.65C348.941 195.466 349.033 195.281 349.089 195.096C349.144 194.911 349.181 194.726 349.218 194.541L349.329 193.987C349.339 193.796 349.339 193.604 349.329 193.414C349.329 193.229 349.329 193.044 349.329 192.859C349.329 192.674 349.329 192.489 349.329 192.304V191.75V191.214C349.329 191.029 349.329 190.862 349.329 190.677C349.329 190.493 349.329 190.326 349.329 190.16C349.329 189.993 349.329 189.827 349.329 189.661C349.338 189.501 349.338 189.34 349.329 189.18C349.329 189.032 349.329 188.866 349.329 188.718V187.498C349.339 187.381 349.339 187.263 349.329 187.147V186.832C349.338 186.734 349.338 186.635 349.329 186.536V185.76H349.218H349.07L348.867 185.852L348.645 185.963L348.386 186.111L348.109 186.259L347.794 186.426L347.776 186.721L347.406 186.925L347.036 187.147L346.63 187.387L346.223 187.646L345.798 187.923L345.354 188.2L344.911 188.515L344.467 188.829L344.023 189.162L343.561 189.494L343.117 189.846L342.692 190.215L342.248 190.604C342.104 190.723 341.968 190.853 341.842 190.992L341.435 191.38L341.047 191.787L340.677 192.212L340.344 192.637L340.012 193.081L339.716 193.524L339.457 193.968L339.235 194.43C339.156 194.579 339.088 194.734 339.032 194.892L338.865 195.355L338.754 195.835C338.745 195.995 338.745 196.156 338.754 196.316C338.746 196.476 338.746 196.637 338.754 196.797C338.745 196.963 338.745 197.13 338.754 197.296C338.744 197.456 338.744 197.616 338.754 197.776C338.774 197.946 338.811 198.114 338.865 198.276C338.865 198.442 338.976 198.608 339.05 198.775C339.124 198.941 339.198 199.107 339.272 199.274C339.646 200.138 340.296 200.853 341.121 201.307Z" fill="#212121"/>
<path d="M382.568 204.228L382.864 203.988C383.581 203.341 384.105 202.51 384.38 201.584C384.443 201.43 384.486 201.269 384.509 201.104C384.518 200.938 384.518 200.771 384.509 200.605C384.519 200.445 384.519 200.284 384.509 200.124C384.519 199.964 384.519 199.803 384.509 199.643V199.163L384.399 198.682C384.36 198.519 384.311 198.358 384.251 198.201C384.197 198.038 384.135 197.878 384.066 197.721L383.844 197.259C383.844 197.092 383.678 196.944 383.604 196.796L383.326 196.334L383.012 195.89L382.679 195.447L382.328 195.003L381.958 194.578L381.57 194.171L381.182 193.765L380.757 193.358L380.35 192.97L379.906 192.6L379.481 192.249L379.056 191.897L378.631 191.565L378.205 191.232L377.78 190.936L377.374 190.64L376.967 190.363L376.597 190.104C376.467 190.035 376.343 189.954 376.227 189.864L375.876 189.642L375.562 189.457L375.266 189.272L374.989 189.106L374.748 188.958L374.527 188.847L374.36 188.736H374.231V189.309C374.231 189.309 374.231 189.494 374.231 189.568C374.231 189.642 374.231 189.771 374.231 189.864C374.222 189.968 374.222 190.073 374.231 190.178C374.231 190.307 374.231 190.418 374.231 190.548C374.231 190.677 374.231 190.807 374.231 190.936C374.231 191.065 374.231 191.213 374.231 191.361C374.231 191.509 374.231 191.657 374.231 191.805C374.231 191.953 374.231 192.119 374.231 192.267V193.783C374.24 193.962 374.24 194.141 374.231 194.319C374.231 194.504 374.231 194.689 374.231 194.874C374.231 195.059 374.231 195.243 374.231 195.428C374.231 195.613 374.231 195.798 374.231 195.983C374.231 196.168 374.231 196.353 374.231 196.556C374.231 196.759 374.231 196.926 374.231 197.111C374.231 197.295 374.231 197.499 374.231 197.684L374.342 198.238L374.453 198.793C374.453 198.978 374.453 199.163 374.601 199.348C374.748 199.532 374.601 199.699 374.748 199.865C374.896 200.032 374.859 200.216 374.933 200.401L375.118 200.9L375.34 201.381C375.409 201.541 375.489 201.695 375.58 201.843C375.58 201.991 375.747 202.139 375.839 202.287L376.116 202.712L376.431 203.1L376.764 203.452L377.133 203.766L377.521 204.062L377.947 204.302L378.39 204.524L378.889 204.69L379.389 204.801H379.943C380.857 204.9 381.779 204.699 382.568 204.228V204.228Z" fill="#212121"/>
<path d="M399.077 197.407C399.163 197.313 399.243 197.214 399.318 197.111C399.845 196.303 400.156 195.374 400.223 194.412C400.233 194.239 400.233 194.067 400.223 193.894C400.233 193.734 400.233 193.574 400.223 193.414C400.234 193.253 400.234 193.093 400.223 192.933C400.191 192.776 400.148 192.621 400.094 192.471C400.044 192.312 399.982 192.158 399.909 192.008C399.909 191.861 399.78 191.713 399.687 191.565C399.595 191.417 399.521 191.288 399.428 191.14L399.151 190.733L398.818 190.326L398.467 189.938L398.079 189.55L397.672 189.198C397.539 189.072 397.397 188.954 397.247 188.847C397.107 188.72 396.959 188.603 396.803 188.496C396.657 188.381 396.502 188.276 396.341 188.182L395.879 187.867L395.38 187.572L394.899 187.276L394.382 186.999L393.882 186.74L393.383 186.499L392.884 186.259L392.385 186.037L391.886 185.834L391.405 185.631L390.943 185.446L390.499 185.279L390.056 185.131L389.649 184.984L389.261 184.854L388.891 184.725H388.558L388.262 184.614H387.985H387.763H387.578H387.412H387.246V184.817V184.984V184.873C387.254 184.952 387.254 185.033 387.246 185.113V185.409V185.723V186.093C387.246 186.204 387.246 186.333 387.246 186.462C387.246 186.592 387.246 186.74 387.246 186.888C387.256 187.029 387.256 187.171 387.246 187.313L387.357 187.775L387.467 188.237L387.578 188.736C387.63 188.9 387.673 189.067 387.708 189.235C387.708 189.42 387.819 189.587 387.856 189.753L388.022 190.289L388.188 190.807C388.373 191.343 388.373 191.343 388.558 191.879L388.762 192.415L388.983 192.933C388.983 193.118 389.15 193.284 389.224 193.45C389.298 193.617 389.39 193.802 389.464 193.968L389.741 194.467L390.019 194.948C390.019 195.096 390.204 195.262 390.314 195.41L390.629 195.854C390.629 196.002 390.832 196.131 390.943 196.279L391.294 196.667L391.645 197.037L392.034 197.37L392.422 197.665L392.829 197.943L393.272 198.165C393.415 198.237 393.564 198.299 393.716 198.349L394.178 198.497H394.677H395.176H395.694H396.249C397.294 198.497 398.302 198.108 399.077 197.407V197.407Z" fill="#212121"/>
<path d="M137.286 229.468H163.977V258.223H137.286V306H101.453V258.223H8.7002L7.66797 236.398L100.273 91.2969H137.286V229.468ZM45.2705 229.468H101.453V139.812L98.7988 144.53L45.2705 229.468Z" fill="#212121"/>
<path d="M567.286 227.468H593.977V256.223H567.286V304H531.453V256.223H438.7L437.668 234.398L530.273 89.2969H567.286V227.468ZM475.271 227.468H531.453V137.812L528.799 142.53L475.271 227.468Z" fill="#212121"/>
</svg>
