<svg width="28" height="24" viewBox="0 0 28 24" fill="none" xmlns="http://www.w3.org/2000/svg">
<path d="M1.03815 11.9886H4.4396V22.9206H11.7338H16.4203H23.7145V11.9886H27.116L14.0771 0.980469L1.03815 11.9886Z" fill="#212121"/>
<path d="M1.03814 12.9413C2.17196 12.9413 3.30578 12.9413 4.4018 12.9413C4.09945 12.6365 3.75931 12.2937 3.45695 11.989C3.45695 15.6457 3.45695 19.2643 3.45695 22.921C3.45695 23.4543 3.87269 23.8733 4.4018 23.8733C9.80634 23.8733 15.2109 23.8733 20.6154 23.8733C21.4847 23.8733 23.6767 24.2922 24.357 23.6066C24.8861 23.0734 24.6216 21.6259 24.6216 20.9403C24.6216 17.9692 24.6216 14.9601 24.6216 11.989C24.3192 12.2937 23.9791 12.6365 23.6767 12.9413C24.8105 12.9413 25.9444 12.9413 27.0404 12.9413C27.7963 12.9413 28.3632 11.8747 27.7207 11.3034C23.3744 7.60859 19.0281 3.95189 14.6818 0.257111C14.266 -0.0857037 13.7747 -0.0857037 13.359 0.257111C9.01267 3.95189 4.66636 7.60859 0.320056 11.3034C-0.624793 12.1033 0.73579 13.4364 1.64284 12.6365C5.98915 8.94176 10.3355 5.28506 14.6818 1.59028C14.2282 1.59028 13.7747 1.59028 13.359 1.59028C17.7053 5.28506 22.0516 8.94176 26.3979 12.6365C26.6247 12.1033 26.8514 11.57 27.0782 10.9986C25.9444 10.9986 24.8105 10.9986 23.7145 10.9986C23.1854 10.9986 22.7697 11.4176 22.7697 11.9509C22.7697 14.7315 22.7697 17.5121 22.7697 20.2547C22.7697 20.8641 22.7697 21.5116 22.7697 22.1211C22.7697 23.5685 22.7697 21.8925 23.6011 21.8925C22.1272 21.8925 20.6154 21.8925 19.1414 21.8925C14.2282 21.8925 9.31502 21.8925 4.4396 21.8925C4.74195 22.1973 5.0821 22.5401 5.38445 22.8448C5.38445 19.1881 5.38445 15.5695 5.38445 11.9128C5.38445 11.3796 4.96871 10.9606 4.4396 10.9606C3.30578 10.9606 2.17196 10.9606 1.07594 10.9606C-0.171265 11.0367 -0.171265 12.9413 1.03814 12.9413Z" fill="#212121"/>
</svg>
