<svg width="35" height="24" viewBox="0 0 35 24" fill="none" xmlns="http://www.w3.org/2000/svg">
<path d="M2.625 0C2.22256 0 1.84412 0.10084 1.50391 0.263862L16.8027 15.2916C17.1248 15.6082 17.8752 15.6082 18.1973 15.2916L33.4961 0.263862C33.1559 0.10084 32.7774 0 32.375 0H2.625ZM0.259766 1.52778C0.0992517 1.87338 0 2.25782 0 2.66667V21.3333C0 21.8618 0.151183 22.3504 0.410157 22.7639L11.1836 12.25L0.259766 1.52778ZM34.7402 1.52778L23.8164 12.25L34.5898 22.7639C34.8488 22.3504 35 21.8618 35 21.3333V2.66667C35 2.25782 34.9007 1.87338 34.7402 1.52778ZM12.4414 13.4861L1.81836 23.8611C2.07356 23.9447 2.34172 24 2.625 24H32.375C32.6583 24 32.9264 23.9447 33.1816 23.8611L22.5586 13.4861L19.4277 16.5694C18.3604 17.6185 16.6396 17.6185 15.5723 16.5694L12.4414 13.4861Z" fill="#212121"/>
</svg>
