<svg width="24" height="24" viewBox="0 0 24 24" fill="none" xmlns="http://www.w3.org/2000/svg">
<path d="M23.3417 17.5273L18.1005 14.8271C17.9508 14.75 17.7866 14.7049 17.6185 14.6949C17.4503 14.6849 17.282 14.71 17.1241 14.7688C16.9663 14.8276 16.8225 14.9187 16.7018 15.0362C16.5812 15.1538 16.4865 15.2953 16.4237 15.4515L15.8192 16.9557C15.7554 17.113 15.6579 17.2545 15.5336 17.3701C15.4092 17.4857 15.261 17.5727 15.0994 17.6248C14.9379 17.677 14.7668 17.6931 14.5983 17.6721C14.4298 17.651 14.268 17.5933 14.1242 17.5029C12.5839 16.5412 11.1593 15.4055 9.87868 14.118C8.59242 12.8381 7.45731 11.4148 6.49563 9.87601C6.40518 9.73223 6.34736 9.57036 6.32625 9.40181C6.30514 9.23326 6.32124 9.06214 6.37343 8.90049C6.42561 8.73884 6.51261 8.5906 6.62829 8.46621C6.74397 8.34182 6.88552 8.24431 7.04296 8.18055L8.54802 7.57615C8.70434 7.51338 8.84583 7.41865 8.96344 7.29804C9.08104 7.17743 9.17216 7.03359 9.23097 6.87573C9.28977 6.71787 9.31497 6.54947 9.30494 6.38131C9.29491 6.21315 9.24988 6.04894 9.17273 5.89919L6.47188 0.656796C6.36442 0.442891 6.19504 0.266303 5.9858 0.150032C5.77655 0.0337601 5.53714 -0.016806 5.29875 0.00491934C4.66144 0.0678322 4.03613 0.219936 3.44113 0.456774C2.77861 0.725006 2.17627 1.12274 1.66939 1.62667C-1.70413 5.00023 0.197141 12.3708 5.91315 18.0868C11.6292 23.8028 18.9997 25.7041 22.3733 22.3306C22.8774 21.8243 23.2743 21.2216 23.5403 20.5585C23.7717 19.9831 23.9224 19.3784 23.9883 18.7618C24.0188 18.5147 23.9733 18.2641 23.8577 18.0436C23.7422 17.823 23.5622 17.6429 23.3417 17.5273Z" fill="#212121"/>
</svg>
