<svg width="24" height="24" viewBox="0 0 24 24" fill="none" xmlns="http://www.w3.org/2000/svg">
<path d="M15.9524 24H8.04762C7.97375 23.9817 7.89862 23.969 7.82286 23.9619C6.89524 23.9343 5.96952 23.8924 5.06381 23.6652C3.02 23.1524 1.53333 21.9671 0.690476 20.0181C0.233333 18.9614 0.100476 17.8381 0.0542857 16.7C0.0438095 16.4505 0.0185714 16.2014 0 15.9524V8.04762C0.0182752 7.97375 0.0310091 7.89862 0.0380952 7.82286C0.0657143 6.89524 0.107619 5.96952 0.333333 5.06381C0.847619 3.02 2.03286 1.53333 3.9819 0.690476C5.03857 0.233333 6.1619 0.100476 7.3 0.0542857C7.54952 0.0438095 7.79857 0.0185714 8.04762 0H15.9524C16.0262 0.0182752 16.1014 0.0310091 16.1771 0.0380952C17.1048 0.0657143 18.0305 0.107619 18.9362 0.334762C20.98 0.847619 22.4667 2.03286 23.3095 3.9819C23.7667 5.03857 23.899 6.1619 23.9457 7.3C23.9562 7.54952 23.9814 7.79857 24 8.04762V15.9524C23.9817 16.0262 23.969 16.1014 23.9619 16.1771C23.9343 17.1048 23.8924 18.0305 23.6652 18.9362C23.1524 20.98 21.9671 22.4667 20.0181 23.3095C18.9614 23.7667 17.8381 23.899 16.7 23.9457C16.4505 23.9562 16.2014 23.9814 15.9524 24ZM2.14571 11.9876H2.18286C2.18286 12.9952 2.16333 14.0029 2.18857 15.01C2.21143 15.9443 2.24762 16.881 2.3419 17.81C2.43333 18.7148 2.75 19.5481 3.36238 20.25C4.21143 21.2229 5.32952 21.631 6.56667 21.7043C7.95857 21.7886 9.35524 21.811 10.75 21.8276C12.17 21.8448 13.5902 21.8392 15.0105 21.811C15.9448 21.7924 16.8814 21.7514 17.8105 21.6576C18.7152 21.5667 19.5486 21.2495 20.2505 20.6367C21.2233 19.7881 21.6314 18.6695 21.7048 17.4329C21.789 16.041 21.8114 14.6443 21.8281 13.249C21.8452 11.8297 21.8397 10.4097 21.8114 8.98905C21.7929 8.05476 21.7524 7.1181 21.6581 6.18905C21.5667 5.28429 21.25 4.45095 20.6376 3.74905C19.7886 2.77619 18.6705 2.3681 17.4333 2.29476C16.0176 2.21 14.5971 2.18857 13.1786 2.17143C11.7905 2.15429 10.401 2.15381 9.01333 2.19C7.97714 2.21667 6.93048 2.23762 5.90952 2.39476C4.16524 2.66667 2.97905 3.66905 2.50714 5.40048C2.35471 5.975 2.26797 6.56496 2.24857 7.15905C2.19048 8.76762 2.17667 10.3781 2.14571 11.9876Z" fill="#212121"/>
<path d="M18.1672 12.0104C18.1643 15.4209 15.3972 18.1733 11.9767 18.1671C8.57908 18.1604 5.8286 15.3952 5.83384 11.9895C5.83471 11.1784 5.99567 10.3754 6.30749 9.62665C6.61932 8.87787 7.07588 8.19801 7.65098 7.62604C8.22609 7.05408 8.90844 6.60125 9.65891 6.29353C10.4094 5.98581 11.2132 5.82925 12.0243 5.83282C15.421 5.83997 18.1696 8.6033 18.1672 12.0104ZM11.9934 15.9919C14.1796 15.9919 15.9896 14.2066 15.9934 12.0485C15.9957 9.82187 14.2248 8.00997 12.0438 8.00806C9.80955 8.00806 8.01003 9.78139 8.00955 11.9871C8.00908 14.1928 9.79336 15.9919 11.9934 15.9919Z" fill="#212121"/>
<path d="M19.8496 5.59588C19.85 5.88207 19.7657 6.16198 19.6071 6.40023C19.4486 6.63849 19.2229 6.82441 18.9588 6.93449C18.6946 7.04458 18.4037 7.07389 18.1229 7.01872C17.8421 6.96356 17.5839 6.8264 17.381 6.62456C17.1781 6.42273 17.0396 6.16528 16.9829 5.88475C16.9263 5.60422 16.9541 5.3132 17.0628 5.04845C17.1715 4.78371 17.3562 4.55712 17.5936 4.39732C17.831 4.23752 18.1105 4.15168 18.3967 4.15064C18.587 4.15014 18.7755 4.18712 18.9515 4.25948C19.1275 4.33184 19.2875 4.43816 19.4224 4.57236C19.5574 4.70656 19.6645 4.86603 19.7378 5.04164C19.8111 5.21726 19.8491 5.40559 19.8496 5.59588Z" fill="#212121"/>
</svg>
