<svg width="25" height="25" viewBox="0 0 25 25" fill="none" xmlns="http://www.w3.org/2000/svg">
<g clip-path="url(#clip0)">
<path d="M15.9845 24.9678H8.07978C8.00592 24.9495 7.93079 24.9368 7.85502 24.9297C6.9274 24.9021 6.00169 24.8602 5.09597 24.633C3.05217 24.1202 1.5655 22.9349 0.722642 20.9859C0.265499 19.9292 0.132642 18.8059 0.0864512 17.6678C0.0759751 17.4183 0.050737 17.1692 0.0321655 16.9202V9.01539C0.0504408 8.94152 0.0631746 8.86639 0.0702608 8.79063C0.0978798 7.86301 0.139785 6.9373 0.365499 6.03158C0.879785 3.98777 2.06502 2.50111 4.01407 1.65825C5.07074 1.20111 6.19407 1.06825 7.33217 1.02206C7.58169 1.01158 7.83074 0.986345 8.07978 0.967773H15.9845C16.0584 0.986049 16.1335 0.998782 16.2093 1.00587C17.1369 1.03349 18.0626 1.07539 18.9684 1.30254C21.0122 1.81539 22.4988 3.00063 23.3417 4.94968C23.7988 6.00635 23.9312 7.12968 23.9779 8.26777C23.9884 8.5173 24.0136 8.76635 24.0322 9.01539V16.9202C24.0139 16.994 24.0012 17.0692 23.9941 17.1449C23.9665 18.0725 23.9245 18.9983 23.6974 19.904C23.1845 21.9478 21.9993 23.4344 20.0503 24.2773C18.9936 24.7344 17.8703 24.8668 16.7322 24.9135C16.4826 24.924 16.2336 24.9492 15.9845 24.9678ZM2.17788 12.9554H2.21502C2.21502 13.963 2.1955 14.9706 2.22074 15.9778C2.24359 16.9121 2.27978 17.8487 2.37407 18.7778C2.4655 19.6825 2.78217 20.5159 3.39455 21.2178C4.24359 22.1906 5.36169 22.5987 6.59883 22.6721C7.99074 22.7563 9.3874 22.7787 10.7822 22.7954C12.2022 22.8125 13.6223 22.807 15.0426 22.7787C15.9769 22.7602 16.9136 22.7192 17.8426 22.6254C18.7474 22.5344 19.5807 22.2173 20.2826 21.6044C21.2555 20.7559 21.6636 19.6373 21.7369 18.4006C21.8212 17.0087 21.8436 15.6121 21.8603 14.2168C21.8774 12.7975 21.8718 11.3775 21.8436 9.95682C21.825 9.02254 21.7845 8.08587 21.6903 7.15682C21.5988 6.25206 21.2822 5.41873 20.6698 4.71682C19.8207 3.74396 18.7026 3.33587 17.4655 3.26254C16.0498 3.17777 14.6293 3.15634 13.2107 3.1392C11.8226 3.12206 10.4331 3.12158 9.0455 3.15777C8.00931 3.18444 6.96264 3.20539 5.94169 3.36254C4.1974 3.63444 3.01121 4.63682 2.53931 6.36825C2.38688 6.94277 2.30013 7.53274 2.28074 8.12682C2.22264 9.73539 2.20883 11.3459 2.17788 12.9554Z" fill="white"/>
<path d="M18.1993 12.9785C18.1965 16.3889 15.4293 19.1413 12.0088 19.1351C8.61121 19.1285 5.86074 16.3632 5.86597 12.9575C5.86684 12.1464 6.02781 11.3434 6.33963 10.5947C6.65145 9.84589 7.10801 9.16603 7.68312 8.59406C8.25823 8.02209 8.94058 7.56927 9.69105 7.26155C10.4415 6.95383 11.2453 6.79727 12.0565 6.80084C15.4531 6.80798 18.2017 9.57132 18.1993 12.9785ZM12.0255 16.9599C14.2117 16.9599 16.0217 15.1747 16.0255 13.0166C16.0279 10.7899 14.2569 8.97798 12.076 8.97608C9.84169 8.97608 8.04216 10.7494 8.04169 12.9551C8.04121 15.1608 9.8255 16.9599 12.0255 16.9599Z" fill="white"/>
<path d="M19.8817 6.56341C19.8822 6.8496 19.7978 7.12951 19.6392 7.36776C19.4807 7.60602 19.2551 7.79194 18.9909 7.90202C18.7267 8.01211 18.4359 8.04142 18.155 7.98625C17.8742 7.93109 17.616 7.79392 17.4131 7.59209C17.2102 7.39026 17.0717 7.13281 17.0151 6.85228C16.9584 6.57175 16.9862 6.28073 17.0949 6.01598C17.2036 5.75123 17.3883 5.52465 17.6258 5.36485C17.8632 5.20505 18.1426 5.11921 18.4288 5.11817C18.6191 5.11767 18.8077 5.15465 18.9837 5.22701C19.1596 5.29937 19.3197 5.40569 19.4546 5.53989C19.5895 5.67409 19.6966 5.83356 19.7699 6.00917C19.8432 6.18479 19.8812 6.37312 19.8817 6.56341Z" fill="white"/>
</g>
<defs>
<clipPath id="clip0">
<rect width="24" height="24" fill="white" transform="translate(0.0321655 0.967773)"/>
</clipPath>
</defs>
</svg>
