<svg width="30" height="25" viewBox="0 0 30 25" fill="none" xmlns="http://www.w3.org/2000/svg">
<path d="M9.54601 24.7256C20.6838 24.7256 26.7783 15.4894 26.7783 7.4933C26.7783 7.23346 26.7783 6.97362 26.7665 6.71378C27.9476 5.86338 28.9752 4.78858 29.7901 3.57204C28.7035 4.05629 27.5342 4.37519 26.3059 4.52874C27.5578 3.78464 28.5145 2.59173 28.9752 1.1744C27.8059 1.87125 26.5066 2.36732 25.1248 2.63897C24.0145 1.45787 22.4437 0.725586 20.7074 0.725586C17.3649 0.725586 14.6484 3.44212 14.6484 6.78464C14.6484 7.25708 14.7074 7.71771 14.8019 8.16653C9.77042 7.9185 5.30585 5.49724 2.31766 1.83582C1.79798 2.73346 1.5027 3.77283 1.5027 4.88307C1.5027 6.98543 2.5775 8.83976 4.19562 9.92637C3.20349 9.89094 2.27042 9.61929 1.45546 9.17047C1.45546 9.19409 1.45546 9.21771 1.45546 9.25315C1.45546 12.1823 3.54601 14.639 6.30979 15.1941C5.80191 15.3358 5.27042 15.4067 4.7153 15.4067C4.32554 15.4067 3.94758 15.3713 3.58144 15.3004C4.34916 17.7098 6.59325 19.4579 9.23892 19.5051C7.16018 21.135 4.54995 22.1035 1.7153 22.1035C1.23105 22.1035 0.746794 22.0799 0.274353 22.0209C2.94365 23.7217 6.13262 24.7256 9.54601 24.7256Z" fill="white"/>
</svg>
