<svg width="30" height="24" viewBox="0 0 30 24" fill="none" xmlns="http://www.w3.org/2000/svg">
<path d="M9.27166 24C20.4095 24 26.5039 14.7638 26.5039 6.76772C26.5039 6.50787 26.5039 6.24803 26.4921 5.98819C27.6732 5.1378 28.7008 4.06299 29.5158 2.84646C28.4291 3.33071 27.2599 3.64961 26.0315 3.80315C27.2835 3.05906 28.2402 1.86614 28.7008 0.448818C27.5315 1.14567 26.2323 1.64173 24.8504 1.91339C23.7402 0.732283 22.1693 0 20.4331 0C17.0906 0 14.374 2.71653 14.374 6.05905C14.374 6.5315 14.4331 6.99213 14.5276 7.44094C9.49607 7.19291 5.0315 4.77165 2.04331 1.11024C1.52362 2.00787 1.22835 3.04724 1.22835 4.15748C1.22835 6.25984 2.30315 8.11417 3.92126 9.20079C2.92914 9.16535 1.99606 8.8937 1.1811 8.44488C1.1811 8.4685 1.1811 8.49213 1.1811 8.52756C1.1811 11.4567 3.27165 13.9134 6.03544 14.4685C5.52756 14.6102 4.99606 14.6811 4.44095 14.6811C4.05118 14.6811 3.67323 14.6457 3.30709 14.5748C4.0748 16.9843 6.3189 18.7323 8.96457 18.7795C6.88583 20.4094 4.27559 21.378 1.44095 21.378C0.956694 21.378 0.472441 21.3543 0 21.2953C2.66929 22.9961 5.85827 24 9.27166 24Z" fill="#212121"/>
</svg>
