<svg width="35" height="24" viewBox="0 0 35 24" fill="none" xmlns="http://www.w3.org/2000/svg">
<g clip-path="url(#clip0)">
<path d="M33.3523 3.7471C33.1597 3.02239 32.7801 2.36098 32.2516 1.82906C31.7231 1.29714 31.0641 0.913356 30.3406 0.716129C27.6774 0 17.0323 0 17.0323 0C17.0323 0 6.3871 0 3.72387 0.716129C3.00042 0.913356 2.34145 1.29714 1.81292 1.82906C1.2844 2.36098 0.904846 3.02239 0.712258 3.7471C0 6.42194 0 12 0 12C0 12 0 17.5781 0.712258 20.2529C0.904846 20.9776 1.2844 21.639 1.81292 22.1709C2.34145 22.7029 3.00042 23.0866 3.72387 23.2839C6.3871 24 17.0323 24 17.0323 24C17.0323 24 27.6774 24 30.3406 23.2839C31.0641 23.0866 31.7231 22.7029 32.2516 22.1709C32.7801 21.639 33.1597 20.9776 33.3523 20.2529C34.0645 17.5781 34.0645 12 34.0645 12C34.0645 12 34.0645 6.42194 33.3523 3.7471Z" fill="#212121"/>
<path d="M13.5484 17.0651L22.4516 12L13.5484 6.93481V17.0651Z" fill="#F1F5F5"/>
</g>
<defs>
<clipPath id="clip0">
<rect width="34.0645" height="24" fill="white"/>
</clipPath>
</defs>
</svg>
