<svg width="35" height="24" viewBox="0 0 35 24" fill="none" xmlns="http://www.w3.org/2000/svg">
<g clip-path="url(#clip0)">
<path d="M33.3523 3.7471C33.1597 3.02239 32.7802 2.36098 32.2517 1.82906C31.7231 1.29714 31.0642 0.913356 30.3407 0.716129C27.6775 0 17.0323 0 17.0323 0C17.0323 0 6.38716 0 3.72393 0.716129C3.00048 0.913356 2.34151 1.29714 1.81299 1.82906C1.28446 2.36098 0.904908 3.02239 0.712319 3.7471C6.10352e-05 6.42194 6.10352e-05 12 6.10352e-05 12C6.10352e-05 12 6.10352e-05 17.5781 0.712319 20.2529C0.904908 20.9776 1.28446 21.639 1.81299 22.1709C2.34151 22.7029 3.00048 23.0866 3.72393 23.2839C6.38716 24 17.0323 24 17.0323 24C17.0323 24 27.6775 24 30.3407 23.2839C31.0642 23.0866 31.7231 22.7029 32.2517 22.1709C32.7802 21.639 33.1597 20.9776 33.3523 20.2529C34.0646 17.5781 34.0646 12 34.0646 12C34.0646 12 34.0646 6.42194 33.3523 3.7471Z" fill="white"/>
<path d="M13.5485 17.0654L22.4517 12.0002L13.5485 6.93506V17.0654Z" fill="#212121"/>
</g>
<defs>
<clipPath id="clip0">
<rect width="34.0645" height="24" fill="white"/>
</clipPath>
</defs>
</svg>
