<svg viewBox="0 0 420.4 140.46" xmlns="http://www.w3.org/2000/svg"><g fill="#212121"><path d="m42.84 14.58-12.78 5.85c-1.26-2.79-3.15-6.21-7.92-6.21-3 0-4.95 1.8-4.95 4.23 0 8.55 26.28 7.65 26.28 26.91 0 11.61-8.28 20-22 20a21.89 21.89 0 0 1 -21.47-15.05l12.87-6.39c1.71 3.69 5.13 7 9.45 7 3.69 0 5.58-1.62 5.58-4.41 0-8.37-26.1-7.65-26.1-27.81 0-11.32 8.2-18.7 20.7-18.7 13.5 0 18.72 9.81 20.34 14.58z"/><path d="m51.48 40v-38.83h15.39v38.83c0 6.8 4.13 11 10.98 11s10.8-4.23 10.8-11.16v-38.67h15.35v38.7c0 14.76-9.63 25.38-26.28 25.38-16.88 0-26.24-10.25-26.24-25.25z"/><path d="m137.79 42.12h-7.38v22.05h-15.41v-63h22.7c12.78 0 20.3 7.92 20.3 20.34 0 12.24-8 20.61-20.21 20.61zm-7.38-27.72v14.49h5c4.5 0 6.84-3.06 6.84-7.38s-2.43-7.11-6.66-7.11z"/><path d="m188.1 42.12h-7.38v22.05h-15.39v-63h22.67c12.78 0 20.34 7.92 20.34 20.34.01 12.24-8 20.61-20.24 20.61zm-7.38-27.72v14.49h5c4.5 0 6.84-3.06 6.84-7.38s-2.43-7.11-6.66-7.11z"/><path d="m212.49 32.58c0-18.27 13.14-32.58 33-32.58s33 14.31 33 32.58c0 18.54-13.14 32.76-33 32.76s-33-14.22-33-32.76z"/><path d="m320.4 37.17s-.09-.18 14.48 27h-17l-11.25-23.31h-4.63v23.31h-15.44v-63h20.52c14.84 0 22 6.84 22 19.35.04 6.93-2.93 13.48-8.68 16.65zm-18.4-22.77v13.6h4.59c4.23 0 6.84-2.61 6.84-6.93 0-4.14-2-6.66-7.56-6.66z"/><path d="m364.32 14.94v49.23h-15.39v-49.23h-13.59v-13.77h42.57v13.77z"/><path d="m161.66 131.61c-5.95 4.59-12.79 8.85-25.74 8.85-15.92 0-29.11-11.26-29.11-29.36 0-16.08 11.9-29 29.44-29 13.27 0 20 6.19 22.92 9.81l-8.69 9a17.81 17.81 0 0 0 -13.59-6.12c-10 0-15.84 7-15.84 16.09 0 10.46 6.91 16.89 15.84 16.89 7.08 0 11.1-2.57 12-3.46v-5h-9.73v-11.51h22.52z"/><path d="m200.35 115.28s-.08-.16 13 24.13h-15.25l-10-20.83h-4.19v20.83h-13.8v-56.3h18.34c13.27 0 19.7 6.11 19.7 17.29 0 6.2-2.65 12.07-7.8 14.88zm-16.49-20.35v12.15h4.14c3.78 0 6.11-2.33 6.11-6.19 0-3.7-1.77-6-6.76-6z"/><path d="m216 111.18c0-16.33 11.74-29.11 29.52-29.11s29.48 12.78 29.48 29.11c0 16.57-11.74 29.28-29.51 29.28s-29.49-12.71-29.49-29.28z"/><path d="m282 117.78v-34.67h13.75v34.67c0 6.11 3.7 9.89 9.81 9.89s9.65-3.78 9.65-10v-34.56h13.79v34.59c0 13.19-8.61 22.68-23.49 22.68-15.15 0-23.51-9.17-23.51-22.6z"/><path d="m359.13 119.71h-6.59v19.7h-13.76v-56.3h20.27c11.42 0 18.18 7.08 18.18 18.18 0 10.94-7.16 18.42-18.1 18.42zm-6.59-24.78v12.95h4.46c4 0 6.11-2.73 6.11-6.59s-2.17-6.36-5.95-6.36z"/><text font-family="Geomanist-Light, Geomanist" font-size="30.55" font-weight="300" transform="matrix(0 1 -1 0 394.43 1.17)">NETWORK</text></g></svg>